<?xml version="1.0" encoding="utf-8"?>
<!-- Generator: Adobe Illustrator 18.0.0, SVG Export Plug-In . SVG Version: 6.00 Build 0)  -->
<!DOCTYPE svg PUBLIC "-//W3C//DTD SVG 1.1//EN" "http://www.w3.org/Graphics/SVG/1.1/DTD/svg11.dtd">
<svg version="1.1" id="Layer_1" xmlns="http://www.w3.org/2000/svg" xmlns:xlink="http://www.w3.org/1999/xlink" x="0px" y="0px"
	 viewBox="0 0 504 288" enable-background="new 0 0 504 288" xml:space="preserve">
<path d="M251.9,99.5c-1.2-0.8-2.5-1.5-3.8-2.2c-2.6-1.3-5.4-2.3-8.4-3.5c1.4-0.7,2.5-1.1,3.6-1.7c1.1-0.6,2.3-1.3,3.4-2
	c2.3-1.5,4.4-3.2,6.2-5.4c4.7-5.7,6.5-12.4,6.5-19.6c0-12.9-4.8-23.2-16.6-29.5c-3.4-1.7-6.8-2.9-10.4-3.7c-3.4-0.7-7-1.1-10.6-1.1
	c-0.8,0-1.6-0.1-2.3-0.1c-9.8,0-19.7,0-29.6,0h-0.6c-7.1,0-14.2,0-21.2,0c-0.7,0-1.4,0.1-2.2,0.1v9.2h16.9v115.7
	c-0.8,0.1-1.6,0.1-2.3,0.1c-4.3,0-8.6-0.1-13,0.1c-0.6,0-1.7,0.6-1.7,1c-0.2,2.6-0.1,5.3-0.1,8c0.9,0.1,1.5,0.1,2.1,0.1
	c15.2,0,30.4,0.1,45.7,0v-9.2c-5.8,0.1-11.6,0-17.5,0h-1.6V99.9c0.7-0.1,1.3-0.2,1.9-0.2c2.6,0,5.2,0,7.8,0c3.8,0,7.7-0.1,11.5,0
	c2.4,0,4.8,0.1,7.2,0.1c7.3,0.2,14.3,1.6,20.6,5.6c9.4,5.9,12.4,14.8,11.5,25.3c-1.2,12.6-9.2,20.2-19.9,23.3v9.7
	c0.8-0.1,1.5-0.3,2.3-0.5c16.3-3.6,26.5-15,28.9-31.6C267.9,118,262.9,106.7,251.9,99.5z M220.9,90.2c-0.3,0-0.6,0-0.9,0
	c-5.3,0.1-10.6,0.1-16,0.1c-3.2,0-6.4-0.1-9.7-0.1v-50c0.7-0.1,1.3-0.1,1.9-0.1h1.1c6.3,0,12.5-0.1,18.8,0c1.6,0,3.3,0.1,4.9,0.1
	c6.2,0.2,12.1,1.6,17.2,5.2c14.3,10.1,12.6,32.9-3.1,41C230.8,88.7,226,90.1,220.9,90.2z"/>
<g>
	<path d="M330.6,256.3c-0.1,1.9-0.1,3.8,0,5.8c0,0.3,0,0.6-0.1,0.8c0,0.1-0.1,0.2-0.1,0.2c-0.2,0.3-0.5,0.5-1.1,0.5l0,0
		c-14.3,0-28.5-0.1-42.8-0.1c-0.2,0-0.4-0.1-0.7-0.2v-8.8h16.9V198h-72.7v56.4c2.2,0,4.3,0,6.5,0c1.5,0,3,0,4.5,0c0.1,0,0.1,0,0.2,0
		c0.1,0,0.2,0,0.4,0c0.3,0,0.6,0,0.9-0.1c0.5,0,1-0.1,1.4-0.1c0.5,0,1,0,1.4,0.1c0.2,0.1,0.4,0.1,0.6,0.2c0.2,0.1,0.4,0.2,0.5,0.3
		c1,0.8,0.4,3.5,0.4,5.3c0.1,1,0,2,0,3.2h-44.5c0-2.7-0.1-5.3,0.1-8c0-0.4,1.1-1,1.7-1c2-0.1,4-0.1,6-0.1h0.1c1.9,0,3.8,0,5.7,0h2.5
		V138.5c-0.7-0.1-1.4-0.1-2.2-0.1c-2.3,0-4.5,0-6.8,0c-1.8,0-3.5,0-5.3,0.1l0,0c-1.3,0-1.9-0.4-1.9-1.9c0.1-1.9,0.1-3.8,0-5.8
		c0-1.1,0.3-1.6,1.5-1.6l0,0c14,0.1,28.1,0.1,42.2,0.1c0.2,0,0.4,0.1,0.8,0.2c0,2.6,0.1,5.3-0.1,7.9c0,0.4-1.1,1-1.8,1
		c-2.2,0.1-4.3,0.1-6.5,0.1h-0.1c-2,0-4,0-5.9,0h-2.5v50c0.8,0.1,1.6,0.1,2.3,0.1H256c14.8,0,29.5,0,44.3,0.1h0.1
		c1,0,1.7-0.1,2.1-0.6c0.1-0.1,0.2-0.2,0.2-0.4c0.2-0.4,0.2-0.8,0.2-1.5c-0.1-15.2-0.1-30.3-0.1-45.5c0-0.7-0.1-1.3-0.1-2.3h-17v-9
		h44.8c0,2.7,0.1,5.4-0.1,8.1c0,0.3-1.1,0.8-1.7,0.8c-2.1,0.1-4.2,0.1-6.4,0.1h-8.2v115.8c0.7,0.1,1.4,0.1,2.2,0.1
		c2.3,0,4.6,0,6.8,0c1.7,0,3.5,0,5.3-0.1h0.1C330.1,254.4,330.7,254.7,330.6,256.3z"/>
	<path d="M204.1,254.4c2-0.1,4-0.1,6-0.1C208.1,254.4,206,254.4,204.1,254.4z"/>
	<path d="M240.8,254.4c0.2,0,0.4,0,0.5,0c-0.1,0-0.3,0-0.4,0C241,254.4,240.9,254.4,240.8,254.4z"/>
	<path d="M238.4,138.5c2.2,0,4.3,0,6.5-0.1C242.7,138.5,240.5,138.5,238.4,138.5z"/>
	<path d="M328.8,138.4c-4,0.1-8,0.1-12,0.1h5.6C324.5,138.5,326.6,138.5,328.8,138.4z"/>
	<path fill="#FFFFFF" d="M322.4,138.5h-5.6c4,0,8,0.1,12-0.1C326.6,138.5,324.5,138.5,322.4,138.5z M238.4,138.5
		c2.2,0,4.3,0,6.5-0.1C242.7,138.5,240.5,138.5,238.4,138.5z M240.8,254.4c0.1,0,0.1,0,0.2,0c0.1,0,0.2,0,0.4,0
		C241.3,254.4,241,254.4,240.8,254.4z M204.1,254.4c2-0.1,4-0.1,6-0.1C208.1,254.4,206,254.4,204.1,254.4z M238.4,138.5
		c2.2,0,4.3,0,6.5-0.1C242.7,138.5,240.5,138.5,238.4,138.5z"/>
</g>
</svg>
