<?xml version="1.0" encoding="utf-8"?>
<!-- Generator: Adobe Illustrator 18.0.0, SVG Export Plug-In . SVG Version: 6.00 Build 0)  -->
<!DOCTYPE svg PUBLIC "-//W3C//DTD SVG 1.1//EN" "http://www.w3.org/Graphics/SVG/1.1/DTD/svg11.dtd">
<svg version="1.1" id="Layer_1" xmlns="http://www.w3.org/2000/svg" xmlns:xlink="http://www.w3.org/1999/xlink" x="0px" y="0px"
	 viewBox="0 0 480 480" enable-background="new 0 0 480 480" xml:space="preserve">
<g>
	<path d="M239.8,165.9c-2-1.3-4.1-2.5-6.3-3.6c-4.3-2.2-9-3.8-14-5.9c2.3-1.1,4.2-1.9,6-2.8c1.9-1,3.8-2.1,5.6-3.3
		c3.8-2.5,7.3-5.4,10.3-9c7.9-9.5,10.9-20.6,10.9-32.7c0-21.5-8-38.7-27.7-49.1c-5.6-2.9-11.4-4.9-17.4-6.1
		c-5.7-1.2-11.6-1.8-17.6-1.9c-1.3,0-2.6-0.1-3.8-0.1c-16.4,0-32.9,0-49.3,0h-1c-11.8,0-23.6,0-35.4,0c-1.2,0-2.4,0.1-3.6,0.2v15.3
		h28.2v192.9c-1.4,0.1-2.6,0.2-3.9,0.2c-7.2,0-14.4-0.1-21.6,0.1c-1,0-2.9,1-2.9,1.7c-0.3,4.4-0.1,8.8-0.1,13.4
		c1.5,0.1,2.5,0.2,3.5,0.2c25.4,0,50.7,0.2,76.1,0v-15.3c-9.6,0.1-19.3,0-29.2,0H144v-93.6c1.2-0.1,2.1-0.3,3.1-0.3
		c4.3,0,8.7,0,13,0c6.4,0,12.8-0.1,19.2,0c4,0,8,0.1,12,0.2c12.1,0.3,23.8,2.7,34.3,9.3c15.6,9.9,20.7,24.7,19.1,42.2
		c-2,21-15.4,33.6-33.2,38.8v16.1c1.3-0.2,2.5-0.5,3.8-0.8c27.2-6,44.2-25,48.1-52.6C266.5,196.6,258.2,177.8,239.8,165.9z
		 M188.1,150.3c-0.5,0-1,0-1.5,0c-8.8,0.2-17.6,0.1-26.6,0.1c-5.3,0-10.7-0.1-16.1-0.1V66.9c1.1-0.1,2.1-0.2,3.1-0.2h1.8
		c10.5,0,20.9-0.1,31.4,0c2.7,0,5.5,0.1,8.2,0.1c10.3,0.3,20.1,2.6,28.7,8.7c23.9,16.9,21,54.8-5.2,68.4
		C204.6,147.8,196.6,150.1,188.1,150.3z"/>
	<g>
		<path d="M371,410.5c-0.2,3.2-0.1,6.4,0,9.6c0,0.5,0,1-0.2,1.4c0,0.1-0.1,0.3-0.2,0.4c-0.3,0.5-0.9,0.8-1.9,0.8c0,0,0,0,0,0
			c-23.8,0-47.5-0.1-71.3-0.1c-0.3,0-0.6-0.2-1.2-0.4v-14.7h28.2v-94.2H203.2v94c3.6,0,7.2,0,10.8,0c2.5,0,5,0,7.5,0
			c0.1,0,0.2,0,0.3,0c0.2,0,0.4,0,0.7,0c0.5,0,1,0,1.5-0.1c0.8,0,1.6-0.1,2.3-0.1c0.9,0,1.7,0,2.4,0.2c0.4,0.1,0.7,0.2,1,0.3
			c0.3,0.1,0.6,0.3,0.8,0.5c1.6,1.4,0.6,5.8,0.6,8.9c0.1,1.7,0,3.4,0,5.3h-74.2c0-4.5-0.1-8.9,0.1-13.3c0-0.6,1.9-1.7,2.9-1.7
			c3.3-0.1,6.7-0.1,10-0.1h0.2c3.2,0,6.4,0,9.5,0h4.2v-193c-1.2-0.1-2.4-0.2-3.6-0.2c-3.8,0-7.5,0-11.3,0c-3,0-5.9,0-8.9,0.1H160
			c-2.2,0-3.2-0.7-3.1-3.1c0.2-3.2,0.1-6.4,0-9.6c0-1.8,0.5-2.7,2.5-2.7h0c23.4,0.1,46.9,0.1,70.3,0.1c0.3,0,0.6,0.2,1.4,0.4
			c0,4.3,0.1,8.8-0.1,13.2c0,0.6-1.9,1.6-3,1.6c-3.6,0.1-7.2,0.1-10.8,0.1h-0.1c-3.3,0-6.6,0-9.9,0h-4.1v83.4
			c1.4,0.1,2.6,0.2,3.8,0.2h39.7c24.6,0,49.2,0,73.8,0.1h0.1c1.7,0,2.9-0.2,3.5-1c0.1-0.2,0.3-0.4,0.4-0.6c0.3-0.6,0.4-1.4,0.4-2.5
			c-0.2-25.3-0.1-50.5-0.1-75.8c0-1.1-0.1-2.2-0.2-3.8h-28.3v-15h74.7c0,4.5,0.1,9-0.1,13.5c0,0.5-1.8,1.4-2.8,1.4
			c-3.5,0.1-7,0.1-10.6,0.1h-13.6v193c1.2,0.1,2.4,0.2,3.6,0.2c3.8,0,7.6,0,11.4,0c2.9,0,5.9,0,8.8-0.1h0.2
			C370.1,407.3,371.2,407.9,371,410.5z"/>
		<path d="M160.1,407.4c3.3-0.1,6.7-0.1,10-0.1C166.8,407.3,163.4,407.4,160.1,407.4z"/>
		<path d="M221.4,407.4c0.3,0,0.6,0,0.9,0c-0.2,0-0.5,0-0.7,0C221.6,407.4,221.5,407.4,221.4,407.4z"/>
		<path d="M217.3,214.1c3.6,0,7.2,0,10.8-0.1C224.5,214.1,220.9,214.1,217.3,214.1z"/>
		<path d="M368,214c-6.7,0.1-13.3,0.1-20,0.1h9.4C360.9,214.1,364.4,214.1,368,214z"/>
		<path fill="#FFFFFF" d="M357.4,214.1H348c6.7,0,13.3,0.1,20-0.1C364.4,214.1,360.9,214.1,357.4,214.1z M217.3,214.1
			c3.6,0,7.2,0,10.8-0.1C224.5,214.1,220.9,214.1,217.3,214.1z M221.4,407.4c0.1,0,0.2,0,0.3,0c0.2,0,0.4,0,0.7,0
			C222.1,407.4,221.7,407.4,221.4,407.4z M160.1,407.4c3.3-0.1,6.7-0.1,10-0.1C166.8,407.3,163.4,407.3,160.1,407.4z M217.3,214.1
			c3.6,0,7.2,0,10.8-0.1C224.5,214.1,220.9,214.1,217.3,214.1z"/>
	</g>
</g>
</svg>
