<?xml version="1.0" encoding="utf-8"?>
<!-- Generator: Adobe Illustrator 21.1.0, SVG Export Plug-In . SVG Version: 6.00 Build 0)  -->
<svg version="1.1" id="Layer_1" xmlns="http://www.w3.org/2000/svg" xmlns:xlink="http://www.w3.org/1999/xlink" x="0px" y="0px"
	 viewBox="0 0 198.4 60" style="enable-background:new 0 0 198.4 60;" xml:space="preserve">
<style type="text/css">
	.st0{fill:#005595;}
</style>
<g>
	<ellipse class="st0" cx="157.9" cy="23.5" rx="1.9" ry="1.7"/>
	<path class="st0" d="M43.7,26.2c-4,0-6.1,2.5-6.1,7.1s2.1,7.1,6.1,7.1s6.1-2.5,6.1-7.2C49.7,28.7,47.6,26.2,43.7,26.2z M43.7,37.7
		c-0.9,0-2.1-0.5-2.1-4.4s1.1-4.4,2.1-4.4c0.9,0,2.1,0.5,2.1,4.4C45.7,37.2,44.6,37.7,43.7,37.7z"/>
	<path class="st0" d="M56.6,37.5c-1.5,0-1.5-0.4-1.5-2.7c0,0,0-4.7,0-5.3c0.6,0,2.7,0,2.7,0v-2.8c0,0-2.1,0-2.7,0c0-0.6,0-3.6,0-3.6
		l-3.7,0.2V35c0,2.8,0,5.6,4.3,5.6l2.6-0.2V40v-2.5l-0.7,0.1L56.6,37.5z"/>
	<path class="st0" d="M85.3,26.2c-2,0-3.1,0.9-3.6,1.8c-0.4-0.8-1.2-1.8-3.3-1.8c-1.7,0-2.6,0.6-3.2,1.3c0-0.4,0-1.1,0-1.1h-3.6V40
		h3.8v-7.8c0-1.7,0.1-3.2,1.9-3.2c0.5,0,0.8,0.1,1.1,0.5c0.2,0.4,0.2,0.5,0.2,2.4v8.2h3.8v-7.9c0-2.7,0.9-3.1,1.9-3.1
		c1.2,0,1.3,0.7,1.3,2.7v8.3h3.8v-8.5c0-1.4,0-3-0.7-3.9C87.8,26.3,86,26.2,85.3,26.2z"/>
	<path class="st0" d="M111.2,26.2c-1.7,0-2.6,0.7-3.2,1.3c0-0.4,0-1.1,0-1.1h-3.6V40h3.8v-7.6c0-1.7,0.1-3.4,1.9-3.4
		c1.2,0,1.3,0.6,1.3,2.5V40h3.8v-8.7c0-1.4,0-2.6-0.6-3.4C114.1,26.8,112.8,26.2,111.2,26.2z"/>
	<path class="st0" d="M150.3,33.1c0,2.7-0.1,4.5-2,4.5c-1.2,0-1.3-0.5-1.3-2.5v-8.5h-3.8v8.5c0,2.1,0,5.3,4,5.3
		c1.8,0,2.6-0.6,3.2-1.3c0,0.4,0,1.1,0,1.1h3.6V26.6h-3.8v6.5H150.3z"/>
	<rect x="156" y="26.6" class="st0" width="3.8" height="13.6"/>
	<path class="st0" d="M169.7,27.3c-0.6-0.5-1.4-0.9-2.8-0.9c-3.3,0-5.3,2.7-5.3,7.1c0,1.7,0.4,7,5.2,7c1.7,0,2.6-0.6,3.2-1.3
		c0,0.4,0,1.1,0,1.1h3.6V21.9h-3.8C169.7,21.9,169.7,25.9,169.7,27.3z M169.1,29.9c0.6,0.7,0.6,1.5,0.6,2.3v2.3
		c0,1.3-0.2,1.9-0.6,2.4c-0.2,0.4-0.7,0.8-1.7,0.8c-1.4,0-2.1-1.4-2.1-4.5c0-2.8,0.7-4.2,2.1-4.2C168,28.9,168.6,29.3,169.1,29.9z"
		/>
	<path class="st0" d="M134.1,33.5c0,0,2.8,0,3.4,0c0,1.8-0.5,3.8-3,3.8c-2.4,0-3.6-2-3.6-6.3c0-5.6,2-6.3,3.6-6.3c2,0,2.5,1.4,3,3.3
		l0,0l3.7-0.9c-0.6-2.6-1.9-5.5-6.8-5.5c-6.6,0-7.7,6.1-7.7,9.6c0,4.4,1.9,9.1,7.4,9.1c2.5,0,3.7-0.9,4.4-1.8
		c0.1,0.6,0.2,1.7,0.2,1.7h2.5v-9.8H134v3.1C134,33.5,134.1,33.5,134.1,33.5z"/>
	<path class="st0" d="M33.3,34.9L33.3,34.9c-0.1,1.4-0.4,2.6-1.8,2.6c-1.9,0-2.1-2.3-2.1-3.9c0-3.3,0.6-4.5,2.1-4.5
		c1.2,0,1.4,0.7,1.7,2.1l3.6-0.9c-0.4-1.5-1.4-4-5.3-4s-6.1,2.5-6.1,7.1c0,4.5,2,7.1,5.8,7.1c4.5,0,5.3-3,5.6-4.6L33.3,34.9z"/>
	<path class="st0" d="M18.8,29.2c-2.5-0.8-3.7-1.3-3.7-2.6c0-0.1,0-1.8,2.3-1.8c1.8,0,2.5,0.9,3.1,2.5l0.1,0.4l3.4-1.1v-0.5
		c-0.4-1.2-1.5-4.5-6.4-4.5c-4.4,0-6.4,2.7-6.4,5.2c0,2.1,1.3,3.4,1.9,3.8c1.1,0.8,2.1,1.2,4.3,1.9c1.8,0.6,3.1,1.1,3.1,2.5
		c0,0.5-0.2,2.1-2.7,2.1c-2.3,0-3.1-1.4-3.4-2.4l-3.7,1.2c0.5,1.5,1.9,4.5,7,4.5c4.7,0,7-3,7-5.7C24.5,31.1,21,29.9,18.8,29.2z"/>
	<path class="st0" d="M183.3,35.3l-0.1,0.2c-0.2,1.1-0.7,2.1-2.1,2.1c-1.9,0-2.3-1.7-2.4-3.6c0.7,0,8.1,0,8.1,0v-0.4
		c0-1.5-0.1-3.2-1.1-5.1c-0.7-1.2-2.3-2.5-4.7-2.5c-3,0-6.2,1.9-6.2,7.4c0,4.4,2.3,6.9,6.2,6.9c3,0,4.9-1.4,5.7-4.3L183.3,35.3z
		 M181,28.9c0.2,0,1.4,0.1,1.8,1.3c0.2,0.6,0.2,0.9,0.2,1.3h-4.2C179.1,29.8,179.9,28.9,181,28.9z"/>
	<path class="st0" d="M65.5,31.8c-2-0.6-2.6-0.8-2.6-1.7c0-0.6,0.4-1.2,1.4-1.2c1.3,0,1.8,0.8,2,1.7v0.1l3.1-0.8v-0.1
		c-0.7-2.4-2.4-3.6-5.1-3.6c-3.3,0-5.2,2.3-5.2,4.4c0,2.8,2.7,3.7,4.7,4.3c1.4,0.4,2.4,0.7,2.4,1.7c0,0.2-0.1,1.3-1.9,1.3
		c-1.8,0-2.3-1.1-2.4-1.9l-0.1-0.4l-1.4,0.1l-1.7,0.4l0.1,0.2c0.2,0.9,0.8,4,5.6,4c3.9,0,5.7-2.3,5.7-4.4
		C70.1,33.1,67.3,32.3,65.5,31.8z"/>
	<path class="st0" d="M102.9,39.7c-0.2-0.8-0.2-2.5-0.2-3.4v-4.4c0-1.4,0-3.1-1.1-4.2c-0.6-0.7-1.9-1.5-4.3-1.5
		c-1.5,0-5,0.4-5.8,3.8l3.5,1l0.1-0.4c0.2-0.8,0.6-1.7,1.9-1.7c1.5,0,1.8,1.2,1.8,2.4v0.1c-1.8,0-3.3,0.1-4.6,0.6
		c-2,0.6-3.2,2.3-3.2,4.4c0,2.5,1.8,4,4.4,4c2,0,3.1-0.8,3.8-1.7c0,0.6,0.1,1.4,0.1,1.4h0.4h3.3L102.9,39.7z M98.8,34.2
		c0,2.5-1.3,3.7-2.4,3.7s-1.5-0.5-1.5-1.5s0.4-2.4,3.4-2.4c0,0,0.2,0,0.5,0V34.2z"/>
	<g>
		<rect x="121" y="18.7" class="st0" width="0.5" height="25"/>
	</g>
</g>
</svg>
